<svg width="643" height="211" viewBox="0 0 643 211" fill="none" xmlns="http://www.w3.org/2000/svg">
<path d="M228.73 3.07711H232.718C283.566 3.1744 336.02 8.8925 382.145 31.65L385.063 33.0778C396.804 38.8756 407.971 45.1657 418.849 52.457C436.491 64.2378 454.051 71.1141 475.418 72.5278L479.292 72.7505C482.1 72.9412 484.907 73.1322 487.714 73.3237C491.559 73.5753 495.403 73.8215 499.248 74.0622C535.406 76.3984 577.958 80.5094 609.556 99.6389C615.221 103.69 620.601 108.032 623.769 114.366C625.742 122.117 624.736 129.351 623.622 137.15C626.771 139.248 629.088 140.268 632.634 141.399C633.581 141.704 634.529 142.009 635.505 142.325C636.226 142.55 636.947 142.778 637.689 143.011C638.914 147.402 639.057 150.333 638.059 154.825C635.846 162.233 633.203 169.059 629.483 175.833C628.828 173.717 628.828 173.717 628.311 171.144C628.89 169.215 629.472 167.287 630.079 165.365C631.173 160.766 631.415 155.884 630.656 151.217C629.236 149.063 629.236 149.063 627.139 147.7L623.036 147.188L618.933 146.528C616.918 144.796 616.918 144.796 615.417 141.839C614.991 137.401 615.339 132.969 615.554 128.526C615.68 124.281 615.678 121.359 614.007 117.402C609.039 111.45 602.124 107.99 595.073 105.01C578.418 99.1079 561.085 96.3145 543.572 94.4049L539.442 93.9501C529.243 92.8564 519.033 91.955 508.809 91.145C507.347 91.0278 505.885 90.9129 504.379 90.7933C498.414 90.3221 492.448 89.8555 486.479 89.4101C444.415 86.2392 444.415 86.2392 427.642 78.0267L425.242 76.8544C412.833 70.6299 400.987 63.2367 389.156 55.9889C363.326 40.1815 334.116 32.6288 304.559 27.1815L300.858 26.4887C274.735 21.9651 248.468 21.8643 222.046 21.9018C218.011 21.9073 213.977 21.8995 209.944 21.8784C180.389 21.7236 150.981 22.1011 122.058 29.0125C120.768 29.3114 119.48 29.6104 118.152 29.9163C92.8576 35.7469 92.8576 35.7469 70.3334 48.0611L67.4943 50.2274C54.4662 61.0494 44.5375 76.1218 37.5112 91.4334C36.1924 95.1516 36.2405 98.7457 36.1772 102.668C36.0482 108.146 35.9193 113.13 33.7331 118.207C31.534 121.499 29.1263 124.381 26.4067 127.251C24.1713 129.662 22.4633 131.813 21.5256 134.988C20.8082 139.619 20.8902 142.455 22.5653 146.894C24.4831 149.979 24.4831 149.979 26.5216 152.316C28.8391 155.791 28.9598 158.8 29.3056 162.939C29.383 166.072 29.3607 169.181 29.3056 172.317C26.7431 169.754 26.225 168.22 25.0563 164.844C23.1174 159.692 20.5726 155.771 17.2903 151.363C14.7161 147.632 13.0422 144.902 12.1255 140.451C11.9907 135.978 12.2158 132.017 13.7279 127.782C15.321 124.828 17.1848 122.358 19.4191 119.855C21.6955 117.052 23.2124 114.711 24.6167 111.361C25.1442 107.727 25.2614 104.112 25.3494 100.445C25.6858 86.9942 28.8402 77.1451 35.8267 65.6445C41.3631 56.9196 47.7658 49.4526 55.0945 42.2C55.9326 41.3361 56.7708 40.471 57.6359 39.5813C70.3123 27.3081 87.544 20.8574 104.328 16.4111C126.633 10.8501 149.484 8.18214 172.317 5.86114L175.312 5.54932C193.134 3.72066 210.818 3.04546 228.73 3.07711Z" fill="white"/>
<path d="M103.156 171.144C118.285 169.592 118.285 169.592 125.428 171.144C130.968 174.17 134.517 179.112 138.322 184.039L140.667 185.211L141.633 183.178C143.653 179.284 145.651 176.206 148.748 173.068C155.056 169.735 161.736 170.446 168.726 170.667C171.489 170.792 174.248 170.951 177.006 171.144V180.522H169.972L171.144 196.933L175.833 198.106V207.483C171.584 207.517 167.335 207.538 163.085 207.557L159.418 207.586L155.915 207.598L152.678 207.617C150.044 207.483 150.044 207.483 147.7 206.311V198.106L152.389 195.761L151.217 191.072L149.71 192.867C147.589 195.218 145.49 197.304 143.011 199.278C138.982 200.303 138.982 200.303 134.806 199.278C131.365 196.835 128.382 194.077 125.428 191.072L124.256 189.9V196.933L128.944 198.106V206.311H101.983V198.106H107.844V180.522H103.156V171.144Z" fill="#ED232D"/>
<path d="M523.983 173.489C528.038 175.529 529.637 176.695 532.189 180.522C532.042 183.892 532.042 183.892 531.017 187.556C528.599 190.926 528.599 190.926 526.328 193.417C529.215 195.971 530.993 196.929 534.826 197.74L538.05 198.106V206.311C534.362 206.345 530.674 206.366 526.988 206.385L523.798 206.414L520.764 206.426L517.956 206.445L515.778 206.311L514.605 205.139C514.44 202.009 514.556 198.898 514.605 195.761H505.228L504.055 198.106H509.917L508.744 206.311H480.611V198.106H486.472L485.3 180.522H479.439L478.267 172.317C492.589 169.448 509.836 169.904 523.983 173.489ZM504.055 180.522L505.228 185.211H513.433V180.522H504.055Z" fill="#ED242D"/>
<path d="M220.378 171.144C240.903 169.244 240.903 169.244 250.856 171.144C254.165 172.9 256.064 174.919 258.109 178.031C259.768 180.765 261.157 183.506 262.578 186.383C264 188.657 265.461 190.908 266.974 193.124L268.713 195.963L270.783 198.106C274.43 199.077 274.43 199.077 277.817 199.278V206.311C274.731 207.854 272.407 207.636 268.956 207.639L265.021 207.644L260.892 207.63L256.778 207.644L252.839 207.639L249.219 207.635C246.167 207.483 246.167 207.483 242.65 206.311V199.278H247.339V196.933L232.1 198.106L236.789 199.278C236.839 201.622 236.836 203.967 236.789 206.311L235.617 207.483C233.785 207.578 231.951 207.617 230.118 207.598L226.763 207.586L223.234 207.557L219.693 207.541C216.795 207.527 213.898 207.508 211 207.483V199.278L214.37 199.059L218.033 198.106C218.879 196.178 219.661 194.223 220.378 192.244C221.75 189.945 223.166 187.674 224.627 185.431L226.871 181.964L228.583 179.35H220.378V171.144ZM239.133 182.867L237.961 189.9H242.65L241.478 182.867H239.133ZM431.639 173.43C435.659 174.951 438.449 176.909 441.57 179.821C443.282 181.916 444.395 183.892 445.444 186.383C445.855 190.248 445.687 192.795 444.272 196.421C440.899 200.532 437.408 202.977 432.55 205.139C422.246 208.205 411.436 208.088 400.9 206.311C394.741 204.33 390.467 201.861 386.101 197.08C384.489 193.417 384.489 193.417 383.977 189.241C384.489 185.211 384.489 185.211 385.808 182.061C388.54 178.69 391.125 176.46 395.039 174.661C407.643 170.406 418.814 169.946 431.639 173.43ZM410.278 179.35C407.093 181.474 407.093 181.474 405.589 185.211C405.262 188.962 405.612 192.174 406.761 195.761C409.117 199.015 409.117 199.015 412.622 200.45C416.303 200.65 416.303 200.65 419.656 199.278C421.953 197.451 421.953 197.451 423.172 194.589C424.344 190.578 424.344 190.578 424.344 186.383C422.969 183.014 422.969 183.014 420.828 180.522C418.324 179.101 418.324 179.101 414.527 178.91L410.278 179.35Z" fill="#ED232D"/>
<path d="M546.256 125.428C559.336 124.297 559.336 124.297 565.011 125.428C568.788 127.995 571.016 130.832 573.217 134.806C575.385 134.071 575.385 134.071 577.906 132.461L580.484 128.825C581.978 126.942 581.978 126.942 583.767 125.428C587.252 124.574 590.536 124.755 594.097 124.988L596.897 125.084C599.164 125.166 601.43 125.293 603.694 125.428V133.633L599.006 132.461L600.178 145.356L603.694 146.528V153.561C600.201 153.592 596.709 153.617 593.218 153.635L590.197 153.664L587.326 153.676L584.665 153.695L582.594 153.561L581.422 152.389C581.373 150.435 581.373 148.481 581.422 146.528L586.111 145.356V139.494L584.605 141.034C582.46 143.07 580.352 144.862 577.906 146.528C573.803 147.407 573.803 147.407 569.7 146.528C566.664 144.46 564.062 142.115 561.494 139.494V145.356L567.356 147.7L566.183 152.389C562.886 152.615 559.59 152.835 556.293 153.049L553.442 153.248C551.049 153.399 548.653 153.485 546.256 153.561L545.083 152.389C544.79 149.532 544.79 149.532 545.083 146.528L548.6 144.183C549.027 141.596 549.027 141.596 548.82 138.762L548.723 135.858L548.6 133.633L546.256 132.461V125.428Z" fill="white"/>
<path d="M337.6 125.428C351.882 123.872 351.882 123.872 358.7 125.428C364.159 128.504 367.807 133.452 371.595 138.322H372.767L371.668 135.172C370.422 131.289 370.422 131.289 369.25 125.428H390.35V131.289L385.661 132.461V145.356L389.178 146.528V152.389C384.189 154.052 379.934 154.085 374.703 153.703C369.009 151.955 365.903 148.946 361.851 144.696C359.576 142.228 357.352 139.712 355.183 137.15V145.356L359.872 147.7L357.528 153.561H337.6V146.528H342.289V132.461H337.6V125.428Z" fill="white"/>
<path d="M313.614 159.202L326.827 159.201C384.756 159.185 442.638 159.822 500.539 161.767V162.939H141.839V161.767C199.084 159.709 256.337 159.184 313.614 159.202Z" fill="white"/>
<path d="M43.3722 125.428C51.2964 123.855 60.1819 123.138 67.9889 125.428C75.1394 130.554 79.3665 138.805 83.2278 146.528H87.9167L89.0889 152.389C85.6601 153.376 82.6335 153.699 79.0699 153.676L76.0714 153.664L72.9708 153.635L69.8164 153.619C67.2531 153.604 64.6903 153.585 62.1278 153.561L60.9556 147.7L63.3 146.528L65.6444 147.7V145.356L51.5778 146.528L56.2667 147.7V152.389C52.0244 153.803 48.149 153.688 43.7391 153.635L41.2458 153.619C39.2186 153.603 37.1923 153.584 35.1667 153.561C34.9791 150.754 34.9791 150.754 35.1667 147.7C36.782 146.636 38.409 145.585 40.09 144.628C44.5679 141.198 47.3777 135.982 50.4056 131.289H43.3722C42.7134 129.018 42.7134 129.018 42.2 126.6L43.3722 125.428ZM56.2667 134.806L55.0944 138.322L60.9556 139.494L62.1278 137.15L60.9556 134.806H56.2667Z" fill="white"/>
<path d="M441.928 125.428C447.276 125.36 452.624 125.318 457.973 125.281C459.489 125.261 461.006 125.241 462.568 125.223L466.998 125.199L471.072 125.162C474.804 125.431 477.3 126.062 480.611 127.772C483.323 130.849 483.323 130.849 485.3 133.633C483.409 136.812 481.492 139.933 479.439 143.011C482.86 145.291 484.86 145.887 488.817 146.528V152.389H471.233V143.011L461.856 144.183L466.545 147.7L465.372 152.389H443.1V146.528H447.789V131.289H441.928V125.428ZM461.856 132.461V135.978H471.233V132.461H461.856Z" fill="white"/>
<path d="M311.811 171.144H350.494V179.35L343.461 180.522L343.411 184.716C343.356 186.542 343.3 188.368 343.242 190.193L343.221 192.954C343.12 195.575 342.949 197.91 342.289 200.45C339.642 203.16 337.431 204.637 334.083 206.311C332.299 206.404 330.513 206.442 328.726 206.426L325.544 206.414L322.215 206.385L318.858 206.369C316.118 206.355 313.378 206.335 310.639 206.311V198.106H323.533V180.522L311.811 179.35V171.144Z" fill="#ED2731"/>
<path d="M215.763 124.988L218.152 124.939C224.105 124.995 228.079 126.252 233.272 128.944C236.05 131.125 237.148 132.909 239.133 135.978C239.866 139.494 239.866 139.494 239.133 143.011C236.57 146.821 236.57 146.821 233.272 150.044C226.873 153.137 220.368 153.486 213.344 153.561C206.871 153.075 201.228 152.387 195.615 149.019C193.46 146.577 192.072 144.93 191.072 141.839C190.56 138.396 190.56 138.396 191.072 134.806C193.915 130.986 196.649 129.1 200.817 126.82C205.706 125.186 210.648 125.056 215.763 124.988ZM210.121 131.363C208.405 133.774 208.405 133.774 207.557 137.59C207.155 141.86 207.155 141.86 209.242 145.356L212.172 147.7C216.43 147.902 216.43 147.902 220.378 146.528C222.945 143.239 222.945 143.239 223.162 139.641C222.956 135.862 222.956 135.862 220.745 132.608L218.033 130.117C214.655 129.458 213.061 129.577 210.121 131.363Z" fill="white"/>
<path d="M541.567 124.256V131.289H536.878L537.042 134.161C537.382 144.209 537.382 144.209 535.266 149.019C531.515 151.698 528.509 152.602 523.979 153.309C516.283 153.86 507.878 154.169 500.782 150.864C498.194 148.872 498.194 148.872 496.665 146.729C495.639 143.526 495.624 140.8 495.704 137.443L495.768 133.945L495.85 131.289H493.506L492.333 125.428H513.433V131.289H508.744V145.356L514.386 146.015L517.56 146.386C520.624 146.712 520.624 146.712 523.983 145.356L525.156 131.289H521.639V125.428L530.944 124.842L533.625 124.672C540.262 124.256 540.262 124.256 541.567 124.256Z" fill="white"/>
<path d="M91.4333 125.428H111.361V131.289H107.844C107.946 133.391 108.073 135.49 108.211 137.59L108.417 141.133L109.017 144.183L112.533 146.528C116.876 146.804 119.992 146.422 124.256 145.356V131.289H120.739V125.428H140.667L139.494 131.289H135.978L136.142 134.161C136.484 144.256 136.484 144.256 134.292 149.019C130.839 151.546 128.259 152.58 124.063 153.304C117.076 153.844 110.041 153.706 103.156 152.389C99.1759 150.127 99.1759 150.127 96.1222 147.7C94.208 143.873 94.4835 139.656 94.2221 135.428L93.7778 132.461L91.4333 130.117V125.428Z" fill="white"/>
<path d="M290.711 125.428H332.911V133.633L330.461 133.377C323.421 132.682 316.54 132.345 309.467 132.461V133.633L317.672 134.806V140.667H309.467L308.294 146.528L332.911 145.356V153.561C326.923 153.59 320.934 153.612 314.946 153.626C312.907 153.632 310.868 153.64 308.829 153.649C305.905 153.664 302.981 153.67 300.057 153.676L297.279 153.694C295.088 153.694 292.9 153.634 290.711 153.561L289.539 152.389C289.49 150.436 289.49 148.481 289.539 146.528H295.4V131.289L290.711 132.461V125.428Z" fill="white"/>
<path d="M392.694 125.428H438.411V135.978H429.033L427.861 132.461H423.172C423.111 134.561 423.062 136.661 423.026 138.762L422.944 142.305L423.172 145.356L425.517 147.7V152.389L405.589 153.561L404.417 147.7L407.933 145.356C408.361 141.961 408.361 141.961 408.154 138.176L408.056 134.284L407.933 131.289L404.417 132.461L403.244 135.978H392.694V125.428Z" fill="white"/>
<path d="M143.011 125.428H188.728L189.9 133.633L188.728 135.978C185.623 136.674 182.524 136.848 179.35 137.15L178.178 132.461H173.489C173.427 134.561 173.378 136.661 173.342 138.762L173.26 142.305L173.489 145.356L175.833 147.7V152.389L155.906 153.561V146.528H159.422L158.25 131.289H155.906L153.561 135.978H143.011V125.428Z" fill="white"/>
<path d="M272.469 125.281L276.423 125.313C279.623 125.341 282.823 125.379 286.022 125.428V134.806C283.289 134.909 280.55 134.899 277.817 134.806L274.3 132.461C271.512 132.089 271.512 132.089 268.513 132.168L265.477 132.149C262.384 132.482 260.486 133.111 257.889 134.806C256.623 137.62 256.623 137.62 256.717 140.667C258.49 143.032 259.94 144.037 262.578 145.356C264.479 145.497 266.386 145.561 268.292 145.576L271.36 145.625C274.445 145.343 276.34 144.57 278.989 143.011L284.85 150.044C280.641 152.851 278.145 152.919 273.128 153.268C265.485 153.711 258.15 153.796 250.856 151.217C247.311 149.379 244.834 147.551 242.65 144.183C241.827 141.298 241.675 139.102 241.927 136.115C242.65 133.633 242.65 133.633 245.654 130.189C253.445 124.299 263.241 125.139 272.469 125.281Z" fill="white"/>
<path d="M18.7556 148.872C21.467 149.165 21.467 149.165 24.6167 150.044C26.6681 151.949 26.6681 151.949 28.1334 154.733C29.3806 160.63 29.4111 166.323 29.3056 172.317C26.0703 169.081 25.1243 165.436 23.5594 161.19C22.3965 158.198 22.3965 158.198 20.3627 155.823L18.7556 153.561V148.872Z" fill="white"/>
<path d="M324.706 145.356H332.911V153.561H329.394V151.217L324.706 150.044V145.356Z" fill="white"/>
<path d="M581.422 146.528H584.939L586.111 153.561L581.422 152.389V146.528Z" fill="white"/>
<path d="M36.3389 146.528H39.8555L38.6833 153.561H35.1666C35.1178 151.608 35.1178 149.653 35.1666 147.7L36.3389 146.528Z" fill="white"/>
</svg>
