<svg width="365" height="120" viewBox="0 0 365 120" fill="none" xmlns="http://www.w3.org/2000/svg">
<path d="M129.965 1.7484H132.231C161.123 1.80369 190.927 5.05272 217.135 17.9836L218.794 18.7948C225.465 22.0892 231.81 25.6632 237.991 29.8061C248.015 36.5 257.992 40.4071 270.133 41.2104L272.335 41.3369C273.93 41.4453 275.525 41.5538 277.12 41.6626C279.304 41.8056 281.489 41.9455 283.674 42.0822C304.218 43.4097 328.397 45.7456 346.35 56.615C349.57 58.9169 352.627 61.384 354.426 64.9827C355.547 69.3873 354.976 73.4976 354.343 77.9288C356.132 79.1211 357.449 79.7006 359.464 80.3433C360.002 80.5165 360.54 80.6897 361.095 80.8695C361.505 80.9974 361.914 81.1266 362.336 81.2591C363.032 83.7542 363.113 85.4193 362.546 87.9717C361.289 92.1812 359.787 96.0596 357.673 99.9088C357.301 98.7065 357.301 98.7065 357.007 97.2445C357.336 96.1482 357.667 95.0525 358.012 93.9609C358.633 91.3473 358.771 88.5738 358.339 85.9215C357.533 84.698 357.533 84.698 356.341 83.9234L354.01 83.6323L351.679 83.2573C350.534 82.2735 350.534 82.2735 349.681 80.5931C349.439 78.0714 349.637 75.553 349.759 73.0286C349.831 70.6168 349.829 68.9564 348.879 66.7078C346.057 63.3262 342.128 61.36 338.121 59.6669C328.658 56.3132 318.81 54.726 308.859 53.641L306.512 53.3826C300.717 52.7612 294.915 52.249 289.106 51.7887C288.275 51.7221 287.445 51.6568 286.589 51.5889C283.199 51.3211 279.81 51.056 276.418 50.8029C252.517 49.0013 252.517 49.0013 242.987 44.3349L241.623 43.6688C234.573 40.132 227.841 35.9312 221.119 31.813C206.442 22.8312 189.845 18.5397 173.051 15.4446L170.948 15.0509C156.105 12.4806 141.18 12.4233 126.167 12.4446C123.874 12.4477 121.582 12.4433 119.29 12.4313C102.497 12.3434 85.7877 12.5579 69.3534 16.4849C68.6207 16.6548 67.8887 16.8246 67.1341 16.9985C52.7619 20.3115 52.7619 20.3115 39.9636 27.3084L38.3504 28.5393C30.9478 34.6883 25.3063 43.2525 21.3139 51.9526C20.5646 54.0653 20.5919 56.1074 20.556 58.3361C20.4827 61.4486 20.4094 64.2806 19.1672 67.1653C17.9177 69.0356 16.5496 70.6735 15.0044 72.304C13.7342 73.6741 12.7637 74.8963 12.2309 76.7006C11.8233 79.3316 11.8699 80.9434 12.8217 83.4651C13.9114 85.2182 13.9114 85.2182 15.0696 86.5463C16.3864 88.5205 16.455 90.2303 16.6515 92.5821C16.6955 94.3625 16.6828 96.1289 16.6515 97.9106C15.1955 96.4546 14.9011 95.5827 14.2371 93.6645C13.1354 90.7371 11.6894 88.5092 9.82442 86.0048C8.36176 83.8847 7.41063 82.3335 6.88977 79.8045C6.81317 77.2628 6.94105 75.0122 7.80027 72.6057C8.70544 70.9272 9.76448 69.5239 11.034 68.1018C12.3275 66.5093 13.1893 65.1791 13.9873 63.2756C14.287 61.2108 14.3536 59.1567 14.4036 57.0732C14.5947 49.4302 16.3871 43.834 20.3568 37.2993C23.5026 32.3418 27.1406 28.099 31.3048 23.9781C31.781 23.4872 32.2573 22.9957 32.7488 22.4901C39.9516 15.5165 49.7426 11.8512 59.2793 9.32482C71.953 6.16504 84.9372 4.64909 97.9106 3.33029L99.6124 3.15312C109.739 2.11407 119.787 1.73042 129.965 1.7484Z" fill="black"/>
<path d="M58.6131 97.2445C67.21 96.3627 67.21 96.3627 71.2682 97.2445C74.416 98.9636 76.4329 101.772 78.5949 104.571L79.927 105.237L80.4758 104.082C81.6241 101.87 82.7591 100.121 84.5188 98.3375C88.1029 96.4439 91.8987 96.8476 95.8704 96.9734C97.4401 97.0445 99.0082 97.1348 100.575 97.2445V102.573H96.5785L97.2445 111.898L99.9088 112.564V117.892C97.4943 117.912 95.0798 117.924 92.6654 117.934L90.5813 117.951L88.5911 117.958L86.7521 117.968C85.2555 117.892 85.2555 117.892 83.9234 117.226V112.564L86.5876 111.232L85.9215 108.568L85.0656 109.587C83.8601 110.923 82.6678 112.108 81.2591 113.23C78.9699 113.813 78.9699 113.813 76.5967 113.23C74.6418 111.842 72.9467 110.275 71.2682 108.568L70.6022 107.901V111.898L73.2664 112.564V117.226H57.9471V112.564H61.2774V102.573H58.6131V97.2445Z" fill="#ED232D"/>
<path d="M297.728 98.5767C300.032 99.7356 300.941 100.398 302.391 102.573C302.307 104.488 302.307 104.488 301.724 106.569C300.351 108.484 300.351 108.484 299.06 109.9C300.701 111.351 301.711 111.895 303.889 112.356L305.721 112.564V117.226C303.625 117.246 301.53 117.258 299.435 117.268L297.623 117.285L295.899 117.292L294.303 117.302L293.066 117.226L292.4 116.56C292.306 114.782 292.372 113.014 292.4 111.232H287.071L286.405 112.564H289.735L289.069 117.226H273.084V112.564H276.414L275.748 102.573H272.418L271.752 97.9106C279.89 96.2807 289.689 96.5398 297.728 98.5767ZM286.405 102.573L287.071 105.237H291.734V102.573H286.405Z" fill="#ED242D"/>
<path d="M125.219 97.2445C136.882 96.1648 136.882 96.1648 142.536 97.2445C144.417 98.2423 145.496 99.3892 146.658 101.158C147.601 102.711 148.39 104.268 149.197 105.903C150.005 107.195 150.836 108.474 151.695 109.733L152.683 111.346L153.859 112.564C155.932 113.116 155.932 113.116 157.856 113.23V117.226C156.103 118.103 154.782 117.979 152.821 117.981L150.585 117.984L148.239 117.976L145.901 117.984L143.663 117.981L141.607 117.978C139.872 117.892 139.872 117.892 137.874 117.226V113.23H140.538V111.898L131.88 112.564L134.544 113.23C134.572 114.562 134.57 115.894 134.544 117.226L133.878 117.892C132.837 117.946 131.795 117.968 130.753 117.958L128.847 117.951L126.842 117.934L124.83 117.925C123.183 117.917 121.537 117.906 119.891 117.892V113.23L121.805 113.105L123.887 112.564C124.367 111.469 124.812 110.358 125.219 109.234C125.999 107.927 126.804 106.637 127.633 105.362L128.908 103.392L129.881 101.907H125.219V97.2445ZM135.876 103.905L135.21 107.901H137.874L137.208 103.905H135.876ZM245.258 98.5433C247.542 99.4072 249.127 100.52 250.901 102.175C251.873 103.365 252.506 104.488 253.102 105.903C253.335 108.099 253.24 109.547 252.436 111.607C250.519 113.943 248.536 115.332 245.776 116.56C239.921 118.303 233.779 118.236 227.792 117.226C224.292 116.101 221.864 114.698 219.383 111.981C218.467 109.9 218.467 109.9 218.176 107.527C218.467 105.237 218.467 105.237 219.216 103.448C220.769 101.532 222.238 100.265 224.462 99.2427C231.623 96.8249 237.971 96.5638 245.258 98.5433ZM233.12 101.907C231.311 103.114 231.311 103.114 230.456 105.237C230.27 107.369 230.47 109.194 231.122 111.232C232.461 113.081 232.461 113.081 234.453 113.896C236.544 114.01 236.544 114.01 238.449 113.23C239.754 112.192 239.754 112.192 240.447 110.566C241.113 108.286 241.113 108.286 241.113 105.903C240.332 103.989 240.332 103.989 239.115 102.573C237.692 101.766 237.692 101.766 235.535 101.657L233.12 101.907Z" fill="#ED232D"/>
<path d="M310.383 71.2683C317.816 70.6255 317.816 70.6255 321.04 71.2683C323.186 72.7269 324.452 74.3388 325.703 76.5967C326.935 76.1791 326.935 76.1791 328.367 75.2646L329.832 73.1985C330.681 72.1288 330.681 72.1288 331.697 71.2683C333.677 70.7834 335.544 70.8859 337.567 71.0185L339.158 71.0731C340.446 71.1197 341.733 71.1917 343.02 71.2683V75.9307L340.356 75.2646L341.022 82.5912L343.02 83.2573V87.2537C341.035 87.2714 339.051 87.2854 337.068 87.2956L335.351 87.3123L333.719 87.3189L332.207 87.3296L331.031 87.2537L330.365 86.5876C330.337 85.4777 330.337 84.3672 330.365 83.2573L333.029 82.5912V79.261L332.173 80.1355C330.954 81.2924 329.757 82.3108 328.367 83.2573C326.036 83.7568 326.036 83.7568 323.704 83.2573C321.979 82.0824 320.501 80.7503 319.042 79.261V82.5912L322.372 83.9234L321.706 86.5876C319.833 86.7164 317.96 86.8414 316.087 86.9626L314.467 87.0758C313.107 87.1617 311.745 87.2104 310.383 87.2537L309.717 86.5876C309.551 84.9644 309.551 84.9644 309.717 83.2573L311.715 81.9252C311.958 80.4552 311.958 80.4552 311.841 78.8447L311.785 77.1948L311.715 75.9307L310.383 75.2646V71.2683Z" fill="black"/>
<path d="M191.825 71.2682C199.94 70.3844 199.94 70.3844 203.814 71.2682C206.916 73.016 208.988 75.8274 211.141 78.5949H211.807L211.182 76.8052C210.474 74.5985 210.474 74.5985 209.808 71.2682H221.797V74.5985L219.133 75.2646V82.5912L221.131 83.2573V86.5876C218.297 87.5327 215.879 87.5514 212.907 87.3342C209.671 86.3411 207.907 84.6314 205.604 82.2162C204.311 80.814 203.048 79.3845 201.816 77.9288V82.5912L204.48 83.9234L203.148 87.2536H191.825V83.2573H194.489V75.2646H191.825V71.2682Z" fill="black"/>
<path d="M178.196 90.4588L185.704 90.4581C218.619 90.4494 251.508 90.8111 284.407 91.9161V92.5822H80.5931V91.9161C113.12 90.7472 145.651 90.4488 178.196 90.4588Z" fill="black"/>
<path d="M24.6442 71.2682C29.1467 70.3744 34.1955 69.9674 38.6314 71.2682C42.6944 74.1809 45.0962 78.8693 47.2902 83.2573H49.9544L50.6205 86.5876C48.6722 87.1484 46.9525 87.3323 44.9277 87.3189L43.2239 87.3123L41.4622 87.2956L39.6698 87.2863C38.2134 87.2779 36.7571 87.267 35.3011 87.2537L34.6351 83.9234L35.9672 83.2573L37.2993 83.9234V82.5912L29.3066 83.2573L31.9708 83.9234V86.5876C29.5604 87.3909 27.3584 87.3256 24.8527 87.2956L23.436 87.2863C22.2841 87.2774 21.1327 87.2665 19.9818 87.2537C19.8752 85.6584 19.8752 85.6584 19.9818 83.9234C20.8996 83.3186 21.8241 82.7218 22.7792 82.1776C25.3236 80.2287 26.9201 77.2654 28.6405 74.5985H24.6442C24.2699 73.3084 24.2699 73.3084 23.9781 71.9343L24.6442 71.2682ZM31.9708 76.5967L31.3048 78.5949L34.6351 79.261L35.3011 77.9288L34.6351 76.5967H31.9708Z" fill="black"/>
<path d="M251.104 71.2683C254.143 71.2296 257.182 71.2056 260.221 71.185C261.082 71.1737 261.944 71.1624 262.832 71.1517L265.349 71.1384L267.664 71.1171C269.784 71.2703 271.202 71.6286 273.084 72.6004C274.625 74.3488 274.625 74.3488 275.748 75.9307C274.674 77.737 273.584 79.5101 272.418 81.2591C274.361 82.5546 275.498 82.893 277.746 83.2573V86.5876H267.756V81.2591L262.427 81.9252L265.091 83.9234L264.425 86.5876H251.77V83.2573H254.434V74.5986H251.104V71.2683ZM262.427 75.2646V77.2628H267.756V75.2646H262.427Z" fill="black"/>
<path d="M177.172 97.2445H199.151V101.907L195.155 102.573L195.126 104.956C195.095 105.993 195.063 107.031 195.031 108.068L195.019 109.637C194.961 111.126 194.864 112.453 194.489 113.896C192.985 115.436 191.729 116.275 189.827 117.226C188.813 117.279 187.798 117.301 186.783 117.292L184.974 117.285L183.083 117.268L181.176 117.259C179.619 117.251 178.062 117.24 176.505 117.226V112.564H183.832V102.573L177.172 101.907V97.2445Z" fill="#ED2731"/>
<path d="M122.597 71.0185L123.954 70.9905C127.337 71.0225 129.595 71.7365 132.546 73.2665C134.124 74.5053 134.748 75.5191 135.876 77.2628C136.292 79.261 136.292 79.261 135.876 81.2592C134.419 83.4239 134.419 83.4239 132.546 85.2555C128.91 87.0126 125.214 87.2111 121.223 87.2537C117.545 86.9773 114.338 86.5863 111.149 84.6727C109.924 83.2853 109.136 82.3495 108.568 80.5931C108.276 78.6369 108.276 78.6369 108.568 76.5968C110.183 74.4267 111.736 73.355 114.104 72.0596C116.883 71.1311 119.691 71.0571 122.597 71.0185ZM119.391 74.6405C118.416 76.0106 118.416 76.0106 117.934 78.1786C117.706 80.6051 117.706 80.6051 118.891 82.5913L120.557 83.9234C122.976 84.038 122.976 84.038 125.219 83.2573C126.678 81.3884 126.678 81.3884 126.801 79.3442C126.684 77.1969 126.684 77.1969 125.427 75.3479L123.887 73.9325C121.967 73.5582 121.061 73.6261 119.391 74.6405Z" fill="black"/>
<path d="M307.719 70.6022V74.5985H305.055L305.148 76.2304C305.341 81.9398 305.341 81.9398 304.139 84.6727C302.008 86.1953 300.3 86.7088 297.725 87.1104C293.353 87.4235 288.577 87.5993 284.545 85.721C283.075 84.5894 283.075 84.5894 282.206 83.3718C281.623 81.5515 281.614 80.0029 281.659 78.0953L281.696 76.1078L281.743 74.5985H280.411L279.745 71.2682H291.734V74.5985H289.069V82.5912L292.275 82.9662L294.078 83.1767C295.819 83.3619 295.819 83.3619 297.728 82.5912L298.394 74.5985H296.396V71.2682L301.683 70.9352L303.206 70.8386C306.978 70.6022 306.978 70.6022 307.719 70.6022Z" fill="black"/>
<path d="M51.9526 71.2682H63.2756V74.5985H61.2774C61.3353 75.7928 61.4073 76.9857 61.4859 78.1786L61.6024 80.1921L61.9435 81.9252L63.9416 83.2573C66.4094 83.4145 68.1798 83.1974 70.6022 82.5912V74.5985H68.604V71.2682H79.927L79.261 74.5985H77.2628L77.356 76.2304C77.5505 81.9665 77.5505 81.9665 76.305 84.6727C74.3428 86.1087 72.8768 86.6962 70.493 87.1078C66.5226 87.4142 62.5256 87.3362 58.6132 86.5876C56.3519 85.3021 56.3519 85.3021 54.6168 83.9234C53.5291 81.7487 53.6857 79.3529 53.5371 76.9504L53.2847 75.2646L51.9526 73.9325V71.2682Z" fill="black"/>
<path d="M165.182 71.2682H189.161V75.9307L187.769 75.7848C183.768 75.3898 179.858 75.1987 175.839 75.2646V75.9307L180.502 76.5967V79.927H175.839L175.173 83.2573L189.161 82.5912V87.2537C185.758 87.2701 182.355 87.2823 178.953 87.2903C177.794 87.2938 176.636 87.2983 175.477 87.3036C173.816 87.3123 172.154 87.3156 170.493 87.3189L168.914 87.3289C167.67 87.3289 166.426 87.2949 165.182 87.2537L164.516 86.5876C164.489 85.4777 164.489 84.3672 164.516 83.2573H167.847V74.5985L165.182 75.2646V71.2682Z" fill="black"/>
<path d="M223.13 71.2682H249.106V77.2628H243.777L243.111 75.2646H240.447C240.412 76.4578 240.384 77.6512 240.364 78.8447L240.317 80.8582L240.447 82.5912L241.779 83.9234V86.5876L230.456 87.2537L229.79 83.9234L231.788 82.5912C232.031 80.6623 232.031 80.6623 231.914 78.5116L231.858 76.3003L231.788 74.5985L229.79 75.2646L229.124 77.2628H223.13V71.2682Z" fill="black"/>
<path d="M81.2592 71.2682H107.235L107.901 75.9307L107.235 77.2628C105.471 77.6584 103.711 77.757 101.907 77.9288L101.241 75.2646H98.5767C98.5417 76.4578 98.5139 77.6512 98.4934 78.8447L98.4468 80.8582L98.5767 82.5912L99.9088 83.9234V86.5876L88.5858 87.2537V83.2573H90.584L89.9179 74.5985H88.5858L87.2537 77.2628H81.2592V71.2682Z" fill="black"/>
<path d="M154.817 71.185L157.064 71.2029C158.882 71.2189 160.7 71.2407 162.518 71.2682V76.5967C160.965 76.6553 159.409 76.65 157.856 76.5967L155.858 75.2646C154.274 75.0534 154.274 75.0534 152.569 75.0981L150.844 75.0874C149.087 75.2766 148.009 75.6336 146.533 76.5967C145.813 78.1959 145.813 78.1959 145.867 79.927C146.874 81.2711 147.698 81.8419 149.197 82.5912C150.277 82.6718 151.361 82.7078 152.444 82.7164L154.187 82.7444C155.94 82.5839 157.017 82.1449 158.522 81.2591L161.852 85.2554C159.46 86.85 158.042 86.8886 155.192 87.0871C150.849 87.3389 146.681 87.3868 142.536 85.9215C140.522 84.8771 139.115 83.8387 137.874 81.9252C137.406 80.286 137.32 79.0378 137.463 77.3407C137.874 75.9306 137.874 75.9306 139.581 73.9737C144.008 70.6268 149.574 71.1044 154.817 71.185Z" fill="black"/>
<path d="M10.657 84.5894C12.1976 84.7559 12.1976 84.7559 13.9873 85.2555C15.1529 86.3378 15.1529 86.3378 15.9854 87.9197C16.6941 91.27 16.7115 94.505 16.6515 97.9106C14.8132 96.0723 14.2757 94.0008 13.3865 91.5884C12.7258 89.8886 12.7258 89.8886 11.5701 88.5391L10.657 87.2537V84.5894Z" fill="black"/>
<path d="M184.498 82.5912H189.161V87.2537H187.162V85.9215L184.498 85.2555V82.5912Z" fill="black"/>
<path d="M330.365 83.2573H332.363L333.029 87.2536L330.365 86.5876V83.2573Z" fill="black"/>
<path d="M20.6478 83.2573H22.646L21.9799 87.2536H19.9818C19.954 86.1437 19.954 85.0333 19.9818 83.9234L20.6478 83.2573Z" fill="black"/>
</svg>
